<svg id="Capa_1" enable-background="new 0 0 512 512" height="512" viewBox="0 0 512 512" width="512" xmlns="http://www.w3.org/2000/svg" xmlns:xlink="http://www.w3.org/1999/xlink"><linearGradient id="SVGID_1_" gradientUnits="userSpaceOnUse" x1="256" x2="256" y1="421" y2="91"><stop offset="0" stop-color="#fd5900"/><stop offset="1" stop-color="#ffde00"/></linearGradient><g><g><path d="m497 91h-482c-4.379 0-15 4.137-15 15v300c0 8.291 6.709 15 15 15h482c8.291 0 15-6.709 15-15v-300c0-10.865-10.614-15-15-15zm-44.991 30-196.009 146.25-196.009-146.25zm29.991 270h-452v-255.007l217.006 162.004c2.666 2.007 5.83 3.003 8.994 3.003s6.328-.996 8.994-3.003l217.006-162.004z" fill="url(#SVGID_1_)"/></g></g></svg>